<svg width="48" height="48" viewBox="0 0 48 48" fill="none" xmlns="http://www.w3.org/2000/svg">
<path fill-rule="evenodd" clip-rule="evenodd" d="M38 34.262V10.376C38 9.31509 37.5786 8.29767 36.8284 7.54752C36.0783 6.79738 35.0609 6.37595 34 6.37595H28L26.868 5.21195C26.4952 4.82852 26.0493 4.52373 25.5567 4.3156C25.0641 4.10748 24.5348 4.00024 24 4.00024C23.4652 4.00024 22.9359 4.10748 22.4433 4.3156C21.9507 4.52373 21.5048 4.82852 21.132 5.21195L20 6.37595H14C12.9391 6.37595 11.9217 6.79738 11.1716 7.54752C10.4214 8.29767 10 9.31509 10 10.376V34.262C10 35.3228 10.4214 36.3402 11.1716 37.0904C11.9217 37.8405 12.9391 38.262 14 38.262H18V40.262H23V44.262H25V40.262H30V38.262H34C35.0609 38.262 36.0783 37.8405 36.8284 37.0904C37.5786 36.3402 38 35.3228 38 34.262ZM26.566 7.76995C26.7524 7.96169 26.9753 8.11412 27.2216 8.2182C27.4679 8.32229 27.7326 8.37593 28 8.37595H34C34.5304 8.37595 35.0391 8.58666 35.4142 8.96174C35.7893 9.33681 36 9.84552 36 10.376V27.801C35.7058 27.5721 35.3968 27.363 35.075 27.1749C33.25 26.1129 30.61 25.561 27.492 27.401C24.924 28.916 22.509 29.325 19.882 29.381C18.711 29.406 17.514 29.361 16.231 29.312L15.701 29.292C14.4681 29.2387 13.234 29.2187 12 29.232V10.377C12 9.84652 12.2107 9.33781 12.5858 8.96274C12.9609 8.58767 13.4696 8.37695 14 8.37695H20C20.2674 8.37693 20.5321 8.32329 20.7784 8.2192C21.0247 8.11512 21.2476 7.96269 21.434 7.77095L22.566 6.60695C22.7524 6.41523 22.9753 6.26284 23.2216 6.15878C23.4679 6.05471 23.7326 6.0011 24 6.0011C24.2674 6.0011 24.5321 6.05471 24.7784 6.15878C25.0247 6.26284 25.2476 6.41523 25.434 6.60695L26.566 7.77095V7.76995Z" fill="#F70923"/>
<path d="M16.42 13.48H17.692L21.004 22H19.588L18.688 19.684H15.4L14.512 22H13.084L16.42 13.48ZM18.424 18.688L17.056 14.956L15.64 18.688H18.424ZM28.7537 19.804C28.7537 20.26 28.6337 20.652 28.3937 20.98C28.1617 21.308 27.8457 21.56 27.4457 21.736C27.0457 21.912 26.6057 22 26.1257 22H22.0577V13.48H26.4497C26.8497 13.48 27.1937 13.588 27.4817 13.804C27.7777 14.012 28.0017 14.284 28.1537 14.62C28.3137 14.948 28.3937 15.292 28.3937 15.652C28.3937 16.068 28.2857 16.46 28.0697 16.828C27.8617 17.188 27.5617 17.456 27.1697 17.632C27.6577 17.776 28.0417 18.04 28.3217 18.424C28.6097 18.8 28.7537 19.26 28.7537 19.804ZM27.3737 19.552C27.3737 19.312 27.3217 19.096 27.2177 18.904C27.1217 18.704 26.9857 18.544 26.8097 18.424C26.6417 18.296 26.4417 18.232 26.2097 18.232H23.4017V20.836H26.1257C26.3657 20.836 26.5777 20.78 26.7617 20.668C26.9537 20.548 27.1017 20.392 27.2057 20.2C27.3177 20 27.3737 19.784 27.3737 19.552ZM23.4017 14.644V17.152H25.8737C26.0977 17.152 26.2977 17.1 26.4737 16.996C26.6497 16.884 26.7897 16.736 26.8937 16.552C26.9977 16.36 27.0497 16.144 27.0497 15.904C27.0497 15.656 27.0017 15.44 26.9057 15.256C26.8097 15.064 26.6777 14.916 26.5097 14.812C26.3497 14.7 26.1617 14.644 25.9457 14.644H23.4017ZM33.6353 17.212V18.268H32.3033V19.72H31.1153V18.268H29.7833V17.212H31.1153V15.76H32.3033V17.212H33.6353Z" fill="#F70923"/>
</svg>
