<svg xmlns="http://www.w3.org/2000/svg" xmlns:xlink="http://www.w3.org/1999/xlink" viewBox="0 0 548.3 653.14"><defs><style>.cls-1{fill:url(#linear-gradient);}.cls-2{fill:#f42a40;}</style><linearGradient id="linear-gradient" x1="483.2" y1="789.21" x2="186.43" y2="207.39" gradientUnits="userSpaceOnUse"><stop offset="0.01" stop-color="#ffeadc"/><stop offset="0.47" stop-color="#fee1d5"/><stop offset="1" stop-color="#ff2a40" stop-opacity="0.8"/></linearGradient></defs><g id="Layer_2" data-name="Layer 2"><g id="Layer_1-2" data-name="Layer 1"><path class="cls-1" d="M533.47,468.71c22-67.5,20.53-144.3-11.18-208.56-16.94-34.33-42.56-64.08-73.31-86.8a8.84,8.84,0,0,0-11.66,1L412.5,200.53a8.8,8.8,0,0,0-.11,12c20.93,22.76,91.71,107.62,71,193.89C459.11,507.33,393.14,549,393.14,549S244.73,662.53,105.05,501.51a132.56,132.56,0,0,1-17.22-26.34C75.6,451.39,68.8,425,66.89,398.36c-9-125.83.32-252,.32-378V8.82A8.81,8.81,0,0,0,58.4,0H9.58A8.81,8.81,0,0,0,.77,8.82V249.38q0,40-.29,80c-.21,25.49-1.23,51,.57,76.49,1.44,20.22,4.72,40.4,11.39,59.6a314.45,314.45,0,0,0,22.2,49.66,280.21,280.21,0,0,0,38.91,54,254.84,254.84,0,0,0,60,48,268.51,268.51,0,0,0,55.93,24.08,258.16,258.16,0,0,0,33.91,7.53,334.9,334.9,0,0,0,83.37,3.13c36.3-3.29,72.07-13.22,104.09-30.81,40.07-22,72.47-55.38,96.11-94.29A276.78,276.78,0,0,0,533.47,468.71Z"/><path class="cls-2" d="M122,15.56V335.13c0,41.66,1.09,86.39,22.41,123.49,19.48,33.89,55.26,57.2,93.07,65.37,38.45,8.3,79.33,1.72,113.77-17.06,25.64-14,46.41-36.44,59.07-62.69a167.07,167.07,0,0,0,12.21-35.19c5.33-23.26,7.57-48.61-.53-71.62-.65-1.85-1.32-3.7-2-5.56A201.43,201.43,0,0,0,404.28,297C397.46,285.33,389,274.2,378.17,266c-.64-.48-1.28-.95-1.93-1.4a15.39,15.39,0,0,0-20,2.15L336.43,287.6c-12.23,12.87,8.24,34.17,13.69,46.39,8,17.94,13.39,39.54,10.88,59.24-4.89,38.35-42.51,64.46-78.83,68.68-42.82,5-83.89-28.78-94.08-69.42-7.59-30.29-2.4-61.81-2.11-92.55l.33-35.1.29-31.45.22-23.62.11-11.64v-.55a15.46,15.46,0,0,1,6.7-12.65c18.16-12.43,74.14-39.92,174,2a15.6,15.6,0,0,0,17-3.19L407.91,161a15.56,15.56,0,0,0-3.14-24.62C374,118.59,303.65,87.68,210.68,107.82a15.55,15.55,0,0,1-18.82-15.21v-77A15.56,15.56,0,0,0,176.3,0H137.57A15.56,15.56,0,0,0,122,15.56Z"/></g></g></svg>