<svg xmlns="http://www.w3.org/2000/svg" xmlns:xlink="http://www.w3.org/1999/xlink" viewBox="0 0 823.57 337.26"><defs><style>.cls-1{fill:#ffeadc;}.cls-2{fill:url(#linear-gradient);}.cls-3{fill:#f42a40;}.cls-4{fill:url(#linear-gradient-2);}</style><linearGradient id="linear-gradient" x1="-334.84" y1="-2400" x2="-416.06" y2="-2559.23" gradientTransform="translate(-539.19 2414.74) rotate(34.84)" gradientUnits="userSpaceOnUse"><stop offset="0.01" stop-color="#ffeadc"/><stop offset="0.47" stop-color="#fee1d5"/><stop offset="1" stop-color="#ff2a40" stop-opacity="0.8"/></linearGradient><linearGradient id="linear-gradient-2" x1="-478.94" y1="-2301.95" x2="-560.16" y2="-2461.19" xlink:href="#linear-gradient"/></defs><g id="Layer_2" data-name="Layer 2"><g id="Layer_1-2" data-name="Layer 1"><path class="cls-1" d="M1.1,11.35H87.22q23.15,0,34.8,5.68a50.67,50.67,0,0,1,19.22,16.24q7.59,10.56,7.59,25.71,0,30.72-33.31,41,19.23,4.33,28.84,17.2a45.91,45.91,0,0,1,9.61,28q0,20.75-15.7,35.85T87.22,196.19H1.1ZM44.29,44V84.47H77.06q18,0,22.68-7.11t4.67-13.61a19.43,19.43,0,0,0-3.86-12.12q-3.85-5.07-8.46-6.36T74,44Zm0,73.4v44.54H77.53q17,0,24-5.95t7-16.66a20.66,20.66,0,0,0-6.76-15.43q-6.75-6.51-22.43-6.5Z" transform="translate(-1.1)"/><path class="cls-1" d="M225.61,159.62h73.52v36.57H181.73V11.35h43.88Z" transform="translate(-1.1)"/><path class="cls-1" d="M673.14,11.35h56.42q34.49,0,51.4,9.55t30.31,30.19q13.4,20.66,13.39,52.2,0,39.69-23.4,66.29t-64.54,26.61H673.14Zm42.52,34v116h17.83q23.65,0,35.14-17.68t11.48-41.5a73.66,73.66,0,0,0-6.55-31.08q-6.55-14.28-16.28-20T733.9,45.34Z" transform="translate(-1.1)"/><path class="cls-2" d="M618.4,189.48c15.49-11.73,27.17-29.21,30.1-48.6a66.29,66.29,0,0,0-2.9-31,2.42,2.42,0,0,0-2.78-1.59l-9.67,2a2.41,2.41,0,0,0-1.9,2.68c1.14,8.39,3.78,38.52-14.37,54.66-21.22,18.87-42.56,17.92-42.56,17.92s-51.08,2.29-57.29-55.72a37,37,0,0,1,.25-8.61,54.73,54.73,0,0,1,7.31-20.52c17.65-29.67,39.48-56.57,59.17-84.86l1.81-2.6A2.41,2.41,0,0,0,585,9.91L574,2.28a2.42,2.42,0,0,0-3.36.6l-2.22,3.19-5.93,8.53L553.9,26.94,543.72,41.56,533,56.92q-6.25,9-12.57,17.92c-4,5.69-8.26,11.27-11.83,17.27a63.25,63.25,0,0,0-6.76,15.17,86.61,86.61,0,0,0-2.78,14.63,77.12,77.12,0,0,0,.29,18.22,69.85,69.85,0,0,0,6,20.15,74.43,74.43,0,0,0,8.8,14.16,72.16,72.16,0,0,0,6.44,7,91.42,91.42,0,0,0,18.24,13.73,72.68,72.68,0,0,0,28.2,9.36,71.42,71.42,0,0,0,36.33-6.15A76.23,76.23,0,0,0,618.4,189.48Z" transform="translate(-1.1)"/><path class="cls-3" d="M596.82,23.36l-.24.34-.68,1-1.1,1.58-1.48,2.13L591.49,31l-2.13,3.07L587,37.53l-2.64,3.8-2.85,4.09-3,4.34-3.15,4.52-3.24,4.66-3.31,4.75-3.33,4.78-3.32,4.78L558.82,78l-3.2,4.59L552.54,87,549.6,91.2l-2.74,3.94c-6.52,9.36-13.26,19.58-14.27,31.25-.93,10.65,3.47,21.49,10.68,29.23a45.51,45.51,0,0,0,28.23,14,38.79,38.79,0,0,0,23.07-4.85,45.7,45.7,0,0,0,8.24-6c4.84-4.39,9.3-9.73,11.08-16.17.14-.51.28-1,.43-1.55a55.45,55.45,0,0,0,1.9-10.3,28.31,28.31,0,0,0-1-11.06c-.06-.2-.13-.41-.21-.61a4.21,4.21,0,0,0-4.82-2.64L602.46,118c-4.77,1-3.5,9-4.18,12.56-1,5.28-3.18,11-6.82,15-7.09,7.85-19.63,7.83-28.45,3.1-10.4-5.57-14.34-19.58-10.28-30.3,3-8,9.13-14.26,14-21.12l5.56-7.84,5-7L581,77.11l1.84-2.59.09-.13a4.26,4.26,0,0,1,3.48-1.79c6,.05,22.9,2.63,38.77,27.66a4.29,4.29,0,0,0,4.31,1.94l8.8-1.48a4.26,4.26,0,0,0,3.14-6,74.5,74.5,0,0,0-39.14-36.76,4.26,4.26,0,0,1-1.85-6.36l12-17.31a4.25,4.25,0,0,0-1.06-5.92l-8.7-6.06A4.26,4.26,0,0,0,596.82,23.36Z" transform="translate(-1.1)"/><path class="cls-4" d="M444.12,187.63c15.49-11.73,27.17-29.21,30.09-48.6a66.29,66.29,0,0,0-2.89-31,2.42,2.42,0,0,0-2.78-1.59l-9.67,2a2.41,2.41,0,0,0-1.9,2.68c1.14,8.39,3.77,38.52-14.37,54.66C421.37,184.68,400,183.73,400,183.73S349,186,342.75,128a35.87,35.87,0,0,1,.25-8.6,54.43,54.43,0,0,1,7.31-20.53C368,69.21,389.79,42.31,409.48,14l1.8-2.6a2.42,2.42,0,0,0-.6-3.36l-11-7.63a2.41,2.41,0,0,0-3.35.6l-2.22,3.19-5.94,8.53-8.59,12.34L369.44,39.71l-10.7,15.36q-6.24,9-12.56,17.92c-4,5.69-8.26,11.28-11.83,17.28a63,63,0,0,0-6.76,15.16,86.8,86.8,0,0,0-2.78,14.63,76.59,76.59,0,0,0,.29,18.22,69.54,69.54,0,0,0,6,20.15,73.44,73.44,0,0,0,8.8,14.16,70.92,70.92,0,0,0,6.44,7,91.56,91.56,0,0,0,18.24,13.74,72.78,72.78,0,0,0,28.2,9.35,71.43,71.43,0,0,0,36.33-6.15A76,76,0,0,0,444.12,187.63Z" transform="translate(-1.1)"/><path class="cls-3" d="M422.54,21.51l-.24.34-.69,1-1.1,1.59L419,26.54l-1.82,2.62-2.13,3.07-2.41,3.46L410,39.49l-2.84,4.09-3,4.33L401,52.43l-3.25,4.66-3.3,4.75-3.33,4.78-3.33,4.78-3.27,4.71-3.2,4.59-3.09,4.43-2.93,4.22-2.75,3.94c-6.51,9.36-13.26,19.58-14.27,31.25-.92,10.66,3.47,21.49,10.69,29.23a45.51,45.51,0,0,0,28.22,14,38.76,38.76,0,0,0,23.07-4.85,45.37,45.37,0,0,0,8.25-6c4.83-4.4,9.3-9.74,11.08-16.18l.42-1.55a54.66,54.66,0,0,0,1.91-10.3,28.69,28.69,0,0,0-1-11.06l-.21-.61a4.22,4.22,0,0,0-4.83-2.64l-7.72,1.59c-4.76,1-3.49,9-4.18,12.56-1,5.28-3.17,11-6.82,15-7.09,7.85-19.62,7.83-28.44,3.1-10.4-5.57-14.35-19.58-10.28-30.3,3-8,9.12-14.26,14-21.12L398,87.56l5-7,3.74-5.27,1.85-2.6.08-.12a4.24,4.24,0,0,1,3.49-1.8c6,0,22.89,2.63,38.77,27.66a4.28,4.28,0,0,0,4.31,1.94L464,98.87a4.26,4.26,0,0,0,3.15-6A74.58,74.58,0,0,0,428,56.09a4.25,4.25,0,0,1-1.85-6.35l12.05-17.31a4.26,4.26,0,0,0-1.07-5.93l-8.69-6.06A4.27,4.27,0,0,0,422.54,21.51Z" transform="translate(-1.1)"/><path class="cls-3" d="M95.29,252.67H63.63v83.81H33.37V252.67H1.55V226.29H95.29Z" transform="translate(-1.1)"/><path class="cls-3" d="M122.92,336.48V226.29h50.6a34.1,34.1,0,0,1,14.9,3.26,37.24,37.24,0,0,1,11.79,8.77,40.78,40.78,0,0,1,7.68,12.33,37.17,37.17,0,0,1,2.72,13.82,40.52,40.52,0,0,1-1.86,12.26,37.33,37.33,0,0,1-5.44,10.78,37.83,37.83,0,0,1-8.53,8.46l23.28,40.51H184.84l-19.39-33.83H153.18v33.83Zm30.26-60.22h19.09a5.52,5.52,0,0,0,3.57-1.4,10.52,10.52,0,0,0,2.87-4,15.64,15.64,0,0,0,1.17-6.36,14,14,0,0,0-1.32-6.44,10.92,10.92,0,0,0-3.26-4,6.55,6.55,0,0,0-3.8-1.4H153.18Z" transform="translate(-1.1)"/><path class="cls-3" d="M269.74,226.29h33.83l35.08,110.19H307.92l-5.7-21.57H271.09l-5.7,21.57H234.51Zm27.16,68.44-10.24-38.8-10.24,38.8Z" transform="translate(-1.1)"/><path class="cls-3" d="M353.86,280.3a53.9,53.9,0,0,1,3.8-19.79,56,56,0,0,1,11.1-17.62,54.22,54.22,0,0,1,17.77-12.65,56.94,56.94,0,0,1,23.67-4.73q15.82,0,27.62,6.6a42.87,42.87,0,0,1,17.54,17.46L432.24,266a18.42,18.42,0,0,0-5.82-8.38,22.86,22.86,0,0,0-8.23-4.12,34,34,0,0,0-8.61-1.16,23.32,23.32,0,0,0-11.26,2.56,22.94,22.94,0,0,0-7.76,6.75,30,30,0,0,0-4.5,9.32,36.9,36.9,0,0,0-1.47,10.24,35.53,35.53,0,0,0,1.71,11,29.51,29.51,0,0,0,5,9.39,23.1,23.1,0,0,0,8,6.44,23.75,23.75,0,0,0,10.63,2.33,29.22,29.22,0,0,0,8.53-1.32,22.6,22.6,0,0,0,7.92-4.27,18.34,18.34,0,0,0,5.43-7.92l24.68,14.75a32.47,32.47,0,0,1-10.87,13.81,56.45,56.45,0,0,1-17.22,8.77,63.32,63.32,0,0,1-19.09,3,51.06,51.06,0,0,1-22.43-4.89,56.26,56.26,0,0,1-17.54-13A60.32,60.32,0,0,1,357.89,301,55.75,55.75,0,0,1,353.86,280.3Z" transform="translate(-1.1)"/><path class="cls-3" d="M483.76,336.48V226.29H514v41.9l33.52-41.9h34.14l-40,49.35,42.84,60.84H549.72L522.41,296,514,304.66v31.82Z" transform="translate(-1.1)"/><path class="cls-3" d="M686,310.1v26.38H607.46V226.29h77.13v26.38H637.72v15.52h40v24.52h-40V310.1Z" transform="translate(-1.1)"/><path class="cls-3" d="M716.72,336.48V226.29h50.59a34,34,0,0,1,14.9,3.26,37.4,37.4,0,0,1,11.8,8.77,40.78,40.78,0,0,1,7.68,12.33,37.17,37.17,0,0,1,2.72,13.82,40.22,40.22,0,0,1-1.87,12.26,37.05,37.05,0,0,1-5.43,10.78,38,38,0,0,1-8.53,8.46l23.28,40.51H778.64l-19.4-33.83H747v33.83ZM747,276.26h19.09a5.54,5.54,0,0,0,3.57-1.4,10.52,10.52,0,0,0,2.87-4,15.64,15.64,0,0,0,1.17-6.36,14.08,14.08,0,0,0-1.32-6.44,10.92,10.92,0,0,0-3.26-4,6.55,6.55,0,0,0-3.81-1.4H747Z" transform="translate(-1.1)"/></g></g></svg>
