<svg xmlns="http://www.w3.org/2000/svg" xmlns:xlink="http://www.w3.org/1999/xlink" viewBox="0 0 853.93 356.77"><defs><style>.cls-1{fill:#f42a40;}.cls-2{fill:url(#linear-gradient);}.cls-3{fill:url(#linear-gradient-2);}</style><linearGradient id="linear-gradient" x1="-119.9" y1="-1761.8" x2="-203.59" y2="-1925.88" gradientTransform="translate(-332.69 1775.85) rotate(34.84)" gradientUnits="userSpaceOnUse"><stop offset="0.01" stop-color="#ffeadc"/><stop offset="0.47" stop-color="#fee1d5"/><stop offset="1" stop-color="#ff2a40" stop-opacity="0.8"/></linearGradient><linearGradient id="linear-gradient-2" x1="-268.38" y1="-1660.78" x2="-352.07" y2="-1824.86" xlink:href="#linear-gradient"/></defs><g id="Layer_2" data-name="Layer 2"><g id="Layer_1-2" data-name="Layer 1"><path class="cls-1" d="M98.19,269.62H65.57V356H34.38V269.62H1.6V242.43H98.19Z" transform="translate(-1.6)"/><path class="cls-1" d="M126.65,356V242.43h52.14a35.16,35.16,0,0,1,15.35,3.36,38.58,38.58,0,0,1,12.15,9,42.11,42.11,0,0,1,7.92,12.72,38.31,38.31,0,0,1,2.8,14.23,41.66,41.66,0,0,1-1.92,12.63,38.25,38.25,0,0,1-5.6,11.12,38.85,38.85,0,0,1-8.79,8.71l24,41.74H190.46l-20-34.86H157.84V356Zm31.19-62.05h19.67a5.76,5.76,0,0,0,3.68-1.44,11,11,0,0,0,3-4.15,16.39,16.39,0,0,0,1.19-6.56,14.53,14.53,0,0,0-1.35-6.64,11.31,11.31,0,0,0-3.36-4.08,6.79,6.79,0,0,0-3.92-1.43H157.84Z" transform="translate(-1.6)"/><path class="cls-1" d="M277.94,242.43H312.8L348.94,356H317.28l-5.87-22.23H279.33L273.46,356H241.63Zm28,70.52-10.55-40-10.56,40Z" transform="translate(-1.6)"/><path class="cls-1" d="M364.61,298.08a55.5,55.5,0,0,1,3.92-20.39A57.7,57.7,0,0,1,380,259.54a55.78,55.78,0,0,1,18.31-13,58.66,58.66,0,0,1,24.39-4.88q16.32,0,28.47,6.8a44.22,44.22,0,0,1,18.07,18l-23.83,16.95a19,19,0,0,0-6-8.64,23.35,23.35,0,0,0-8.47-4.23,34.83,34.83,0,0,0-8.88-1.2,24,24,0,0,0-11.59,2.63,23.54,23.54,0,0,0-8,7,31,31,0,0,0-4.64,9.6A38,38,0,0,0,396.28,299,36.37,36.37,0,0,0,398,310.39a30.4,30.4,0,0,0,5.11,9.68,23.66,23.66,0,0,0,8.24,6.64,24.46,24.46,0,0,0,10.95,2.4,30.44,30.44,0,0,0,8.8-1.36,23.5,23.5,0,0,0,8.15-4.4,18.86,18.86,0,0,0,5.6-8.16l25.43,15.19a33.37,33.37,0,0,1-11.2,14.24,58.19,58.19,0,0,1-17.75,9,65.22,65.22,0,0,1-19.67,3.12,52.63,52.63,0,0,1-23.11-5,57.92,57.92,0,0,1-18.07-13.43,62.11,62.11,0,0,1-11.75-18.87A57.44,57.44,0,0,1,364.61,298.08Z" transform="translate(-1.6)"/><path class="cls-1" d="M498.46,356V242.43h31.19v43.18l34.54-43.18h35.18l-41.26,50.85L602.25,356H566.43l-28.15-41.74-8.63,9V356Z" transform="translate(-1.6)"/><path class="cls-1" d="M706.83,328.79V356H625.92V242.43H705.4v27.19H657.1v16h41.26v25.26H657.1v17.92Z" transform="translate(-1.6)"/><path class="cls-1" d="M738.5,356V242.43h52.13A35.16,35.16,0,0,1,806,245.79a38.73,38.73,0,0,1,12.16,9,42.08,42.08,0,0,1,7.91,12.72,38.12,38.12,0,0,1,2.8,14.23,41.66,41.66,0,0,1-1.92,12.63,38,38,0,0,1-5.6,11.12,38.85,38.85,0,0,1-8.79,8.71l24,41.74H802.3l-20-34.86H769.68V356Zm31.18-62.05h19.67a5.76,5.76,0,0,0,3.68-1.44,11,11,0,0,0,3-4.15,16.22,16.22,0,0,0,1.2-6.56,14.53,14.53,0,0,0-1.36-6.64,11.31,11.31,0,0,0-3.36-4.08,6.79,6.79,0,0,0-3.92-1.43H769.68Z" transform="translate(-1.6)"/><path class="cls-1" d="M6.94,11.69H95.68q23.85,0,35.85,5.86a52.34,52.34,0,0,1,19.82,16.73q7.82,10.88,7.81,26.49,0,31.65-34.32,42.24,19.8,4.47,29.72,17.74a47.28,47.28,0,0,1,9.9,28.9q0,21.36-16.18,36.93t-52.6,15.57H6.94ZM51.45,45.32V87H85.21q18.56,0,23.37-7.33t4.82-14a20.07,20.07,0,0,0-4-12.49q-4-5.23-8.72-6.55T82,45.32Zm0,75.62v45.91H85.7q17.53,0,24.78-6.14t7.24-17.17a21.33,21.33,0,0,0-7-15.9q-7-6.69-23.11-6.7Z" transform="translate(-1.6)"/><path class="cls-1" d="M238.27,164.47H314v37.68h-121V11.69h45.21Z" transform="translate(-1.6)"/><path class="cls-1" d="M699.4,11.69h58.13q35.55,0,53,9.84t31.22,31.12q13.8,21.27,13.8,53.78,0,40.89-24.11,68.3t-66.5,27.42H699.4Zm43.81,35V166.29h18.38q24.38,0,36.2-18.21t11.84-42.76a75.79,75.79,0,0,0-6.76-32q-6.75-14.72-16.77-20.64T762,46.72Z" transform="translate(-1.6)"/><path class="cls-2" d="M638.62,195.24c16-12.08,28-30.1,31-50.08a68.3,68.3,0,0,0-3-31.9,2.48,2.48,0,0,0-2.86-1.64l-10,2.06a2.47,2.47,0,0,0-2,2.76c1.17,8.64,3.89,39.68-14.81,56.31-21.87,19.44-43.86,18.47-43.86,18.47s-52.63,2.36-59-57.41a36.58,36.58,0,0,1,.26-8.87A56.29,56.29,0,0,1,542,103.79c18.19-30.58,40.68-58.29,61-87.44l1.86-2.67a2.49,2.49,0,0,0-.62-3.47l-11.3-7.86A2.49,2.49,0,0,0,589.4,3l-2.28,3.28L581,15l-8.85,12.72L561.67,42.82l-11,15.83Q544.2,67.9,537.7,77.12c-4.16,5.86-8.51,11.61-12.19,17.79a65.16,65.16,0,0,0-7,15.63,88.83,88.83,0,0,0-2.86,15.07,79.19,79.19,0,0,0,.3,18.78,71.78,71.78,0,0,0,6.15,20.76,76,76,0,0,0,9.07,14.59,74,74,0,0,0,6.63,7.2,94.38,94.38,0,0,0,18.8,14.16,75,75,0,0,0,29,9.63,73.54,73.54,0,0,0,37.44-6.34A78.11,78.11,0,0,0,638.62,195.24Z" transform="translate(-1.6)"/><path class="cls-1" d="M616.38,24.06l-.24.36-.71,1-1.14,1.63-1.52,2.19L610.89,32l-2.2,3.15-2.48,3.57-2.72,3.91-2.94,4.22-3.1,4.46-3.25,4.66-3.34,4.8-3.4,4.89L584,70.55l-3.42,4.92-3.38,4.85-3.29,4.74-3.18,4.56-3,4.35L564.9,98c-6.71,9.65-13.67,20.17-14.71,32.2-1,11,3.58,22.14,11,30.12a46.9,46.9,0,0,0,29.08,14.38,40.09,40.09,0,0,0,23.78-5,47.27,47.27,0,0,0,8.49-6.18c5-4.53,9.59-10,11.42-16.66.14-.54.29-1.07.44-1.61a57,57,0,0,0,2-10.6,29.45,29.45,0,0,0-1-11.4c-.07-.21-.14-.43-.22-.64a4.33,4.33,0,0,0-5-2.71l-8,1.63c-4.9,1-3.59,9.24-4.3,13-1,5.44-3.27,11.3-7,15.46-7.31,8.09-20.22,8.07-29.31,3.2C570.83,147.43,566.76,133,571,122c3.12-8.23,9.4-14.69,14.42-21.76l5.73-8.07,5.14-7.23,3.85-5.43,1.9-2.68.09-.12a4.37,4.37,0,0,1,3.59-1.85c6.21,0,23.59,2.7,40,28.5a4.4,4.4,0,0,0,4.44,2l9.07-1.52a4.39,4.39,0,0,0,3.24-6.2A76.88,76.88,0,0,0,622,59.7a4.39,4.39,0,0,1-1.91-6.55l12.42-17.83a4.39,4.39,0,0,0-1.1-6.11l-9-6.24A4.4,4.4,0,0,0,616.38,24.06Z" transform="translate(-1.6)"/><path class="cls-3" d="M459,193.33c16-12.08,28-30.09,31-50.07a68.29,68.29,0,0,0-3-31.9,2.5,2.5,0,0,0-2.86-1.65l-10,2.06a2.47,2.47,0,0,0-2,2.76c1.17,8.64,3.89,39.69-14.81,56.32-21.87,19.44-43.86,18.47-43.86,18.47s-52.63,2.36-59-57.42a36.59,36.59,0,0,1,.26-8.87,56.35,56.35,0,0,1,7.52-21.15c18.19-30.57,40.68-58.28,61-87.44l1.86-2.67a2.48,2.48,0,0,0-.62-3.46L413.28.45a2.48,2.48,0,0,0-3.46.62l-2.28,3.28-6.12,8.79-8.85,12.71L382.09,40.91l-11,15.84Q364.62,66,358.12,75.21C354,81.08,349.61,86.83,345.93,93a65,65,0,0,0-7,15.63,88.64,88.64,0,0,0-2.86,15.07,79.19,79.19,0,0,0,.3,18.78,71.78,71.78,0,0,0,6.15,20.76,75.93,75.93,0,0,0,9.07,14.58,74.14,74.14,0,0,0,6.63,7.21,94.34,94.34,0,0,0,18.8,14.15,75,75,0,0,0,29.05,9.64,73.54,73.54,0,0,0,37.44-6.34A78.63,78.63,0,0,0,459,193.33Z" transform="translate(-1.6)"/><path class="cls-1" d="M436.8,22.16l-.24.35-.71,1-1.14,1.63-1.52,2.19-1.88,2.7-2.2,3.16-2.48,3.56-2.72,3.92L421,44.9l-3.1,4.46L414.62,54l-3.34,4.8-3.4,4.9-3.44,4.93L401,73.57l-3.38,4.85-3.29,4.73-3.18,4.57-3,4.34-2.83,4.07c-6.71,9.64-13.67,20.17-14.71,32.19-.95,11,3.58,22.14,11,30.13a47,47,0,0,0,29.08,14.38,40,40,0,0,0,23.78-5,46.79,46.79,0,0,0,8.49-6.18c5-4.52,9.59-10,11.42-16.66.14-.53.29-1.07.44-1.6a57.14,57.14,0,0,0,2-10.61,29.45,29.45,0,0,0-1-11.4c-.07-.21-.14-.42-.22-.63a4.34,4.34,0,0,0-5-2.72l-8,1.64c-4.9,1-3.59,9.23-4.3,12.94-1,5.44-3.27,11.31-7,15.47-7.31,8.09-20.22,8.07-29.31,3.19-10.71-5.74-14.78-20.17-10.59-31.22,3.12-8.23,9.4-14.69,14.42-21.76l5.73-8.07L416.66,83l3.85-5.43,1.9-2.67.09-.13a4.4,4.4,0,0,1,3.59-1.85c6.21,0,23.59,2.71,40,28.5a4.41,4.41,0,0,0,4.44,2l9.07-1.52a4.4,4.4,0,0,0,3.24-6.21A76.87,76.87,0,0,0,442.46,57.8a4.39,4.39,0,0,1-1.91-6.55L453,33.41a4.4,4.4,0,0,0-1.1-6.11l-9-6.24A4.39,4.39,0,0,0,436.8,22.16Z" transform="translate(-1.6)"/></g></g></svg>