<svg width="48" height="48" viewBox="0 0 48 48" fill="none" xmlns="http://www.w3.org/2000/svg">
<path fill-rule="evenodd" clip-rule="evenodd" d="M38 34.262V10.376C38 9.31509 37.5786 8.29767 36.8284 7.54752C36.0783 6.79738 35.0609 6.37595 34 6.37595H28L26.868 5.21195C26.4952 4.82852 26.0493 4.52373 25.5567 4.3156C25.0641 4.10748 24.5348 4.00024 24 4.00024C23.4652 4.00024 22.9359 4.10748 22.4433 4.3156C21.9507 4.52373 21.5048 4.82852 21.132 5.21195L20 6.37595H14C12.9391 6.37595 11.9217 6.79738 11.1716 7.54752C10.4214 8.29767 10 9.31509 10 10.376V34.262C10 35.3228 10.4214 36.3402 11.1716 37.0904C11.9217 37.8405 12.9391 38.262 14 38.262H18V40.262H23V44.262H25V40.262H30V38.262H34C35.0609 38.262 36.0783 37.8405 36.8284 37.0904C37.5786 36.3402 38 35.3228 38 34.262ZM26.566 7.76995C26.7524 7.96169 26.9753 8.11412 27.2216 8.2182C27.4679 8.32229 27.7326 8.37593 28 8.37595H34C34.5304 8.37595 35.0391 8.58666 35.4142 8.96174C35.7893 9.33681 36 9.84552 36 10.376V27.801C35.7058 27.5721 35.3968 27.363 35.075 27.1749C33.25 26.1129 30.61 25.561 27.492 27.401C24.924 28.916 22.509 29.325 19.882 29.381C18.711 29.406 17.514 29.361 16.231 29.312L15.701 29.292C14.4681 29.2387 13.234 29.2187 12 29.232V10.377C12 9.84652 12.2107 9.33781 12.5858 8.96274C12.9609 8.58767 13.4696 8.37695 14 8.37695H20C20.2674 8.37693 20.5321 8.32329 20.7784 8.2192C21.0247 8.11512 21.2476 7.96269 21.434 7.77095L22.566 6.60695C22.7524 6.41523 22.9753 6.26284 23.2216 6.15878C23.4679 6.05471 23.7326 6.0011 24 6.0011C24.2674 6.0011 24.5321 6.05471 24.7784 6.15878C25.0247 6.26284 25.2476 6.41523 25.434 6.60695L26.566 7.77095V7.76995Z" fill="#F70923"/>
<path d="M23.57 21.255C23.57 21.825 23.42 22.315 23.12 22.725C22.83 23.135 22.435 23.45 21.935 23.67C21.435 23.89 20.885 24 20.285 24H15.2V13.35H20.69C21.19 13.35 21.62 13.485 21.98 13.755C22.35 14.015 22.63 14.355 22.82 14.775C23.02 15.185 23.12 15.615 23.12 16.065C23.12 16.585 22.985 17.075 22.715 17.535C22.455 17.985 22.08 18.32 21.59 18.54C22.2 18.72 22.68 19.05 23.03 19.53C23.39 20 23.57 20.575 23.57 21.255ZM21.845 20.94C21.845 20.64 21.78 20.37 21.65 20.13C21.53 19.88 21.36 19.68 21.14 19.53C20.93 19.37 20.68 19.29 20.39 19.29H16.88V22.545H20.285C20.585 22.545 20.85 22.475 21.08 22.335C21.32 22.185 21.505 21.99 21.635 21.75C21.775 21.5 21.845 21.23 21.845 20.94ZM16.88 14.805V17.94H19.97C20.25 17.94 20.5 17.875 20.72 17.745C20.94 17.605 21.115 17.42 21.245 17.19C21.375 16.95 21.44 16.68 21.44 16.38C21.44 16.07 21.38 15.8 21.26 15.57C21.14 15.33 20.975 15.145 20.765 15.015C20.565 14.875 20.33 14.805 20.06 14.805H16.88ZM29.6721 18.015V19.335H28.0071V21.15H26.5221V19.335H24.8571V18.015H26.5221V16.2H28.0071V18.015H29.6721Z" fill="#F70923"/>
</svg>
