<svg width="48" height="48" viewBox="0 0 48 48" fill="none" xmlns="http://www.w3.org/2000/svg">
<path fill-rule="evenodd" clip-rule="evenodd" d="M38 34.262V10.376C38 9.31509 37.5786 8.29767 36.8284 7.54752C36.0783 6.79738 35.0609 6.37595 34 6.37595H28L26.868 5.21195C26.4952 4.82852 26.0493 4.52373 25.5567 4.3156C25.0641 4.10748 24.5348 4.00024 24 4.00024C23.4652 4.00024 22.9359 4.10748 22.4433 4.3156C21.9507 4.52373 21.5048 4.82852 21.132 5.21195L20 6.37595H14C12.9391 6.37595 11.9217 6.79738 11.1716 7.54752C10.4214 8.29767 10 9.31509 10 10.376V34.262C10 35.3228 10.4214 36.3402 11.1716 37.0904C11.9217 37.8405 12.9391 38.262 14 38.262H18V40.262H23V44.262H25V40.262H30V38.262H34C35.0609 38.262 36.0783 37.8405 36.8284 37.0904C37.5786 36.3402 38 35.3228 38 34.262ZM26.566 7.76995C26.7524 7.96169 26.9753 8.11412 27.2216 8.2182C27.4679 8.32229 27.7326 8.37593 28 8.37595H34C34.5304 8.37595 35.0391 8.58666 35.4142 8.96174C35.7893 9.33681 36 9.84552 36 10.376V27.801C35.7058 27.5721 35.3968 27.363 35.075 27.1749C33.25 26.1129 30.61 25.561 27.492 27.401C24.924 28.916 22.509 29.325 19.882 29.381C18.711 29.406 17.514 29.361 16.231 29.312L15.701 29.292C14.4681 29.2387 13.234 29.2187 12 29.232V10.377C12 9.84652 12.2107 9.33781 12.5858 8.96274C12.9609 8.58767 13.4696 8.37695 14 8.37695H20C20.2674 8.37693 20.5321 8.32329 20.7784 8.2192C21.0247 8.11512 21.2476 7.96269 21.434 7.77095L22.566 6.60695C22.7524 6.41523 22.9753 6.26284 23.2216 6.15878C23.4679 6.05471 23.7326 6.0011 24 6.0011C24.2674 6.0011 24.5321 6.05471 24.7784 6.15878C25.0247 6.26284 25.2476 6.41523 25.434 6.60695L26.566 7.77095V7.76995Z" fill="#F70923"/>
<path d="M19.625 24.075C18.855 24.075 18.16 23.925 17.54 23.625C16.92 23.325 16.385 22.92 15.935 22.41C15.485 21.89 15.135 21.31 14.885 20.67C14.645 20.02 14.525 19.355 14.525 18.675C14.525 17.965 14.655 17.29 14.915 16.65C15.175 16 15.535 15.425 15.995 14.925C16.455 14.415 16.995 14.015 17.615 13.725C18.245 13.425 18.925 13.275 19.655 13.275C20.415 13.275 21.105 13.43 21.725 13.74C22.355 14.05 22.89 14.465 23.33 14.985C23.78 15.505 24.125 16.085 24.365 16.725C24.615 17.365 24.74 18.02 24.74 18.69C24.74 19.4 24.61 20.08 24.35 20.73C24.1 21.37 23.745 21.945 23.285 22.455C22.825 22.955 22.28 23.35 21.65 23.64C21.03 23.93 20.355 24.075 19.625 24.075ZM16.235 18.675C16.235 19.175 16.315 19.66 16.475 20.13C16.635 20.6 16.86 21.02 17.15 21.39C17.45 21.75 17.81 22.035 18.23 22.245C18.65 22.455 19.12 22.56 19.64 22.56C20.18 22.56 20.66 22.45 21.08 22.23C21.5 22.01 21.85 21.715 22.13 21.345C22.42 20.965 22.64 20.545 22.79 20.085C22.94 19.615 23.015 19.145 23.015 18.675C23.015 18.175 22.935 17.695 22.775 17.235C22.625 16.765 22.4 16.35 22.1 15.99C21.8 15.62 21.44 15.33 21.02 15.12C20.61 14.91 20.15 14.805 19.64 14.805C19.1 14.805 18.62 14.915 18.2 15.135C17.78 15.355 17.425 15.65 17.135 16.02C16.845 16.39 16.62 16.805 16.46 17.265C16.31 17.725 16.235 18.195 16.235 18.675ZM30.8293 18.015V19.335H29.1643V21.15H27.6793V19.335H26.0143V18.015H27.6793V16.2H29.1643V18.015H30.8293Z" fill="#F70923"/>
</svg>
